<?xml version="1.0" encoding="UTF-8"?> <svg xmlns="http://www.w3.org/2000/svg" xmlns:xlink="http://www.w3.org/1999/xlink" width="117px" height="43px" viewBox="0 0 117 43"><!-- Generator: Sketch 61.2 (89653) - https://sketch.com --><title>Group 27@4x</title><desc>Created with Sketch.</desc><g id="v2" stroke="none" stroke-width="1" fill="none" fill-rule="evenodd"><g id="Group-13" transform="translate(-8.876729, -17.077794)" fill-rule="nonzero"><g id="Group-27" transform="translate(8.933004, 17.433793)"><path d="M116.257953,18.3544045 L115.815133,16.3213458 C115.206164,16.4861884 114.928762,16.5953508 114.59866,16.5953508 C113.434885,16.5953508 113.104783,16.1550379 113.104783,14.5066119 L113.104783,8.02060509 L115.261791,8.02060509 L116.146699,5.65786116 L113.104783,5.65786116 L113.104783,2.0928652 L109.729837,2.63354893 L109.729837,5.65786116 L108.400646,5.65786116 L108.400646,8.02060509 L109.729837,8.02060509 L109.729837,15.0568199 C109.729837,16.2656656 109.729837,16.4861884 109.948685,17.0356637 C110.335878,18.1895619 111.719965,18.95956 113.435617,18.95956 C114.321257,18.9588274 115.261791,18.7390373 116.257953,18.3544045 Z M106.635954,18.6284096 L106.635954,9.55986866 C106.635954,8.29534276 106.581059,7.90997739 106.303656,7.19565946 C105.916463,6.04176126 104.588736,5.32817596 102.927978,5.32817596 C101.43337,5.32817596 100.162001,5.87691866 99.2207348,6.92165443 C99.2207348,6.75607919 99.2756299,5.98681373 99.2756299,5.60144836 L99.2756299,0.709652626 L95.7894302,1.26791956 L95.7894302,18.6284096 L99.2756299,18.6284096 L99.2756299,11.4830323 C99.2756299,10.2829782 99.4307998,9.58551084 99.8297036,9.11882313 C100.339861,8.5217266 101.209398,8.18398243 101.987444,8.18398243 C102.984337,8.18398243 103.315903,8.73492303 103.315903,9.94376876 L103.315903,18.6284096 L106.635954,18.6284096 L106.635954,18.6284096 Z M90.0591221,13.4618762 C90.0591221,14.066299 90.0034952,14.6714545 89.7824512,15.166715 C89.5065123,15.7711378 88.9524385,16.1550379 88.2329478,16.1550379 C86.1849976,16.1550379 85.9632218,14.7264021 85.9632218,12.0332403 C85.9632218,9.61481619 86.4060416,8.18471506 88.1773209,8.18471506 C89.0629605,8.18471506 89.7275562,8.62502796 90.0591221,9.00892806 L90.0591221,13.4618762 Z M93.278898,5.38239086 L90.7449439,5.78900261 C90.7449439,5.78900261 90.556837,6.51431005 90.50121,6.78904771 C89.8878497,6.09890669 88.8404527,5.43733839 87.5683521,5.43733839 C83.5280787,5.43733839 82.2003512,9.06534086 82.2003512,12.4728206 C82.2003512,15.6612428 83.5837057,18.7939848 87.4022032,18.7939848 C88.4539918,18.7939848 89.6704654,18.1895619 90.0583902,17.5294589 L90.0583902,18.6284096 C90.0583902,20.607986 89.8915093,21.5420941 87.3465762,21.5420941 C86.1293707,21.5420941 84.6896573,21.1025138 83.4175567,20.4424108 L82.5868121,22.80662 C84.2475694,23.6293677 85.7963409,24.1253608 87.5119932,24.1253608 C88.8397208,24.1253608 90.7222539,23.9055707 91.9394595,22.8608349 C93.212292,21.8168318 93.267187,19.947883 93.267187,18.1338818 L93.278898,5.38239086 L93.278898,5.38239086 Z M80.5505729,2.08407359 C80.5505729,1.15948977 79.9825924,0.376304257 79.1591671,0.100833956 L77.8358312,0.100833956 C76.9838605,0.376304257 76.3448825,1.15948977 76.3448825,2.08407359 C76.3448825,3.23870443 77.2854171,4.22702739 78.4477277,4.22702739 C79.6093063,4.22702739 80.5505729,3.23870443 80.5505729,2.08407359 L80.5505729,2.08407359 Z M80.1641119,18.6284096 L80.1641119,5.38239086 L76.7320753,5.93186619 L76.7320753,18.6284096 L80.1641119,18.6284096 Z M74.146154,18.6284096 L74.146154,9.17523593 C74.146154,8.35029029 74.091259,7.80081496 73.925842,7.30628716 C73.5371852,6.20660386 72.2094577,5.43733839 70.7704763,5.43733839 C69.9960905,5.43733839 69.109719,5.60144836 68.4458552,5.98681373 C67.8670084,6.27812219 67.3573368,6.69034678 66.9512468,7.19565946 L66.7353264,5.47030691 L63.8529719,5.93186619 L63.8529719,18.6284096 L67.2842766,18.6284096 L67.2842766,10.9892372 C67.2842766,10.0536638 67.5602155,9.39575869 68.0030354,8.95544579 C68.5014821,8.51513289 69.0555559,8.29607539 69.6081657,8.29607539 C70.5494323,8.29607539 70.8253713,8.90049826 70.8253713,10.3840817 L70.8253713,18.6291422 L74.146154,18.6291422 L74.146154,18.6284096 L74.146154,18.6284096 Z M62.8963347,18.6284096 L56.7781019,9.17523593 L62.287366,1.04007046 L58.0846033,1.04007046 L53.0481683,9.06534086 L53.0481683,1.04007046 L49.4514466,1.04007046 L49.4514466,18.6284096 L53.0481683,18.6284096 L53.0481683,9.44924096 L58.396407,18.6284096 L62.8963347,18.6284096 L62.8963347,18.6284096 Z M91.1387242,42.0023576 L91.1387242,32.5484513 C91.1387242,31.7242383 91.0830972,31.1732977 90.9169483,30.6787699 C90.5297554,29.5798193 89.201296,28.8098212 87.7623145,28.8098212 C86.9871968,28.8098212 86.1022891,28.9746638 85.4376934,29.3600291 C84.85928,29.6513657 84.3499008,30.0633059 83.943817,30.5681422 L83.7271646,28.8427897 L80.8455421,29.3050816 L80.8455421,42.0023576 L84.2753829,42.0023576 L84.2753829,34.3617199 C84.2753829,33.4276119 84.5520538,32.7682415 84.9956056,32.3279286 C85.4933204,31.8883483 86.0466622,31.6685582 86.600004,31.6685582 C87.5412706,31.6685582 87.8172095,32.2744463 87.8172095,33.7580297 L87.8172095,42.0030902 L91.1387242,42.0030902 L91.1387242,42.0023576 L91.1387242,42.0023576 Z M100.476733,34.4708824 L104.682423,29.0296113 L100.531628,29.0296113 L97.1559502,34.6364576 L101.615622,42.0023576 L105.62369,42.0023576 L100.476733,34.4708824 L100.476733,34.4708824 Z" id="Shape" fill="#4C4D4E"></path><path d="M93.7246455,24.7561585 L93.7246455,42.0023576 L97.1559502,42.0023576 L97.1559502,24.2059505 L93.7246455,24.7561585 Z M66.992967,28.9746638 C66.4396252,28.7556063 66.2178493,28.6999261 65.7201345,28.6999261 C64.447302,28.6999261 63.1737376,29.8538243 62.6211277,30.7337175 L62.2888298,28.9746638 L59.520657,29.4208377 L59.520657,42.0023576 L62.9519617,42.0023576 L62.9519617,33.9609693 C62.9519617,33.3023315 63.0610198,32.749193 63.4496765,32.3279286 C63.7783147,31.9726012 64.3331204,31.7220404 64.9567278,31.7220404 C65.3431887,31.7220404 65.791864,31.8326681 66.122698,31.9982434 L66.992967,28.9746638 L66.992967,28.9746638 Z M59.025138,24.4125532 L49.4514466,24.4125532 L49.4514466,42.0023576 L52.9376463,42.0023576 L52.9376463,34.1968773 L57.4756346,34.1968773 L57.4756346,31.3491298 L52.9376463,31.3491298 L52.9376463,27.2258669 L58.5823182,27.2258669 L59.025138,24.4125532 L59.025138,24.4125532 Z M79.282132,40.5729891 C78.1198214,39.6930959 77.9961246,39.0498435 77.9961246,37.7149847 L78.0166188,33.3177168 C78.0166188,31.9740665 77.9624557,31.5586631 77.7955748,31.0091878 C77.29786,29.5805519 75.8025197,28.7563389 73.5898844,28.7563389 C72.3726789,28.7563389 71.2630676,28.970268 69.9924309,29.5248717 C69.2825704,29.8410664 68.5949297,30.2050421 67.9342336,30.6142982 L69.1946232,32.8554249 C70.7492502,31.8736956 71.9847541,31.4927261 73.0914377,31.4927261 C74.3642702,31.4927261 74.6724142,32.0546562 74.6724142,33.4840247 L74.6724142,33.9785525 L73.8665553,33.9785525 C69.71576,33.9785525 67.6129148,35.4086536 67.6129148,38.4307679 C67.6129148,40.7839876 68.8981901,42.2265435 71.3450441,42.4646495 L72.7335221,42.4646495 C73.5079079,42.3774661 74.1717716,42.1313012 74.6973,41.7833001 C74.9732389,41.6191901 75.2499098,41.3349282 75.5273127,41.0601906 C75.8017877,41.6038048 76.3375631,42.1173811 76.9516554,42.4646495 L77.5364704,42.4646495 L79.282132,40.5729891 L79.282132,40.5729891 Z M74.6167873,36.2064918 L74.6204469,39.2212798 C74.1212682,39.7722204 73.4237355,40.0242464 72.7591398,40.0242464 C71.8735002,40.0242464 71.2652634,39.3084632 71.2652634,38.318675 C71.2652634,36.7808767 72.0389172,36.2064918 74.4191652,36.2064918 L74.6167873,36.2064918 L74.6167873,36.2064918 Z" id="Shape" fill="#4C4D4E"></path><path d="M0.43885583,14.660465 L7.34684504,21.5208477 L21.0603527,7.89972052 L14.1545593,1.04007046 L0.43885583,1.04007046 L0.43885583,14.660465 L0.43885583,14.660465 Z M14.1545593,42.001625 L21.0603527,35.1419749 L7.34684504,21.5208477 L0.43885583,28.3804978 L0.43885583,42.001625 L14.1545593,42.001625 Z M21.0603527,35.1419749 L27.9668781,42.001625 L41.5859664,42.001625 L41.5859664,28.285988 L34.7753243,21.5208477 L21.0603527,35.1419749 Z M34.7753243,21.5208477 L41.5859664,14.7557074 L41.5859664,1.04007046 L27.9668781,1.04007046 L21.0603527,7.89972052 L34.7753243,21.5208477 Z" id="Shape" fill="#CC212F"></path></g></g></g></svg> 