<?xml version="1.0" encoding="UTF-8"?> <svg xmlns="http://www.w3.org/2000/svg" xmlns:xlink="http://www.w3.org/1999/xlink" width="164px" height="43px" viewBox="0 0 164 43"><!-- Generator: Sketch 61.2 (89653) - https://sketch.com --><title>Imperial_logo</title><desc>Created with Sketch.</desc><g id="v2" stroke="none" stroke-width="1" fill="none" fill-rule="evenodd"><g id="Imperial_logo" fill="#004683" fill-rule="nonzero"><path d="M0.129224764,18.118171 L2.73945641,18.118171 L2.73945641,0.904142989 L0.129224764,0.904142989 L0.129224764,18.118171 Z M23.2026412,10.6250058 C23.1566818,8.69640623 22.7422698,7.34441241 21.9594051,6.56902021 C21.1765073,5.79365101 20.3008053,5.42049358 19.332298,5.44954646 C18.4472052,5.45846632 17.6915137,5.66567213 17.0652215,6.07116472 C16.4389043,6.47668116 15.9194837,7.02704194 15.5069584,7.7222481 L15.4619544,7.7222481 C15.197076,7.01719675 14.781727,6.46402309 14.2159058,6.06272567 C13.6500654,5.66145209 12.9703186,5.45705936 12.1766629,5.44954646 C11.2367289,5.47206111 10.4725994,5.69145538 9.88427212,6.10772988 C9.29593404,6.52402843 8.85245752,7.00219542 8.5538413,7.54223228 L8.48633529,7.54223228 L8.35132348,5.71957049 L6.10112365,5.71957049 C6.12456155,6.24040982 6.14518843,6.7795197 6.1630041,7.33690159 C6.18081666,7.89430524 6.19019244,8.51779738 6.19113166,9.20738006 L6.19113166,18.118171 L8.75635932,18.118171 L8.75635932,10.6025038 C8.7872952,9.62039363 9.05731902,8.87314038 9.56643121,8.36074177 C10.0755334,7.84836285 10.6380829,7.5905279 11.254081,7.58723629 C12.0036711,7.60646721 12.5521567,7.89993038 12.8995394,8.46762706 C13.2469053,9.03534281 13.4184829,9.76196917 13.4142728,10.6475078 L13.4142728,18.118171 L15.9795005,18.118171 L15.9795005,10.4674918 C16.0052729,9.55991993 16.2574828,8.85485801 16.7361305,8.35230417 C17.2147541,7.84976981 17.7651146,7.59474732 18.3872141,7.58723629 C19.1700813,7.60131043 19.7420069,7.91633826 20.1029915,8.53232019 C20.4639449,9.14832119 20.642085,9.98089425 20.6374138,11.0300418 L20.6374138,18.118171 L23.2026412,18.118171 L23.2026412,10.6250058 Z M28.7921862,7.60973829 L28.6571734,5.71957049 L26.3619696,5.71957049 C26.3854085,6.2675994 26.406036,6.87046465 26.42385,7.52816788 C26.441664,8.18589248 26.4510396,8.91814439 26.4519788,9.72492591 L26.4519788,23.1361165 L29.0622099,23.1361165 L29.0622099,16.655541 L29.1072135,16.655541 C29.4180194,17.1698065 29.8596189,17.581405 30.4320204,17.8903381 C31.0044073,18.1992716 31.665404,18.3577229 32.4150084,18.3656928 C33.775433,18.3750684 34.9755377,17.8443967 36.0153268,16.7736766 C37.0550951,15.7029592 37.6026436,14.0359377 37.6579723,11.7726077 C37.628896,9.82572391 37.1638555,8.29090161 36.2628486,7.16813605 C35.361821,6.04539226 34.1992186,5.47252968 32.7750392,5.44954646 C31.9063617,5.4523722 31.1403573,5.63801356 30.477024,6.00647118 C29.8136782,6.37495306 29.2670668,6.90937494 28.8371898,7.60973829 L28.7921862,7.60973829 Z M29.0622099,10.8275238 C29.0851761,9.89322992 29.3711394,9.11784932 29.9200999,8.50137934 C30.4690479,7.88492863 31.1431687,7.56521322 31.9424666,7.54223228 C32.9461404,7.57458942 33.7065198,7.99931438 34.223605,8.81640841 C34.7406715,9.63352089 35.0003824,10.6489222 35.0027377,11.8626157 C34.9989767,13.1696116 34.7308294,14.2290793 34.1982918,15.0410224 C33.6657355,15.8529717 32.8912926,16.2711335 31.8749591,16.2955092 C31.1966128,16.3025425 30.5674935,16.052208 29.9876053,15.5445049 C29.4077046,15.0368067 29.0992394,14.2295483 29.0622099,13.1227275 L29.0622099,10.8275238 Z M48.8490255,15.7779631 C48.4500742,15.9500116 47.999097,16.0897112 47.4960939,16.1970623 C46.9930721,16.3044172 46.4014571,16.3597348 45.721249,16.3630152 C44.7124023,16.3770806 43.8498265,16.084555 43.1335197,15.4854373 C42.4172026,14.8863248 42.0271687,13.8962379 41.963416,12.5151736 L49.8391148,12.5151736 C49.884106,12.203902 49.9066099,11.8363699 49.9066202,11.4125757 C49.9211418,9.82525555 49.5432949,8.44888462 48.7730817,7.28345894 C48.0028477,6.11805483 46.7530516,5.50675136 45.0236871,5.44954646 C43.2554002,5.49550067 41.8865309,6.14055725 40.9170712,7.38471827 C39.9476093,8.62890064 39.4563163,10.1965383 39.4431922,12.0876355 C39.4553792,14.0031222 39.9710503,15.5220054 40.9902035,16.6442897 C42.0093547,17.7665772 43.4588555,18.3403777 45.3387143,18.3656928 C46.1862833,18.360067 46.9438493,18.2869357 47.6114164,18.1462983 C48.2789669,18.0056612 48.8340146,17.8312709 49.2765637,17.6231269 L48.8490255,15.7779631 Z M41.9859178,10.6475078 C42.0445121,9.87869799 42.298598,9.14363361 42.7481737,8.44231218 C43.1977389,7.74101003 43.8962379,7.36597707 44.8436707,7.31721226 C45.829064,7.3631646 46.5134975,7.73257201 46.8969776,8.42543552 C47.2804412,9.11831873 47.4585812,9.85900866 47.4313999,10.6475078 L41.9859178,10.6475078 Z M58.6593521,5.51705247 C58.5491776,5.4945627 58.4432307,5.47768604 58.3415114,5.46642229 C58.2397754,5.45518404 58.1282035,5.44954646 58.0067938,5.44954646 C57.3171955,5.45705978 56.6824513,5.68395471 56.102563,6.13023188 C55.5226624,6.57653311 55.0848114,7.19721257 54.789008,7.99227213 L54.6990009,7.99227213 L54.6089916,5.71957049 L52.3362896,5.71957049 C52.3695726,6.28916385 52.3930116,6.88265331 52.4066084,7.50004074 C52.4202012,8.11744953 52.4267653,8.78407055 52.4262988,9.49990588 L52.4262988,18.118171 L55.0365299,18.118171 L55.0365299,11.5475877 C55.0459013,10.4524981 55.3027987,9.58242193 55.8072241,8.93735603 C56.3116371,8.29230857 57.0073247,7.96227962 57.8942827,7.94726812 C58.1830513,7.94727828 58.4380744,7.96978028 58.6593521,8.01477413 L58.6593521,5.51705247 Z M63.5241083,2.29926694 C63.51754,1.85158675 63.3787786,1.48686713 63.107822,1.20510683 C62.836855,0.923380126 62.4730736,0.778055186 62.0164756,0.769130973 C61.5589322,0.778055601 61.1914001,0.923380748 60.9138773,1.20510704 C60.6363503,1.48686713 60.4938382,1.85158675 60.486339,2.29926694 C60.4929011,2.72635114 60.6316625,3.08169477 60.9026253,3.36529845 C61.173584,3.64893179 61.5373675,3.79613226 61.9939717,3.80690069 C62.4711993,3.79613267 62.8443563,3.6489322 63.1134469,3.36529887 C63.3825293,3.08169477 63.5194164,2.72635114 63.5241083,2.29926694 L63.5241083,2.29926694 Z M63.2990883,5.69706849 L60.6888572,5.69706849 L60.6888572,18.118171 L63.2990883,18.118171 L63.2990883,5.69706849 Z M75.3517987,10.4899938 C75.385542,9.12816329 75.0648899,7.95899816 74.3898381,6.98249489 C73.7147698,6.00601401 72.4827877,5.49503169 70.6938856,5.44954646 C69.8533369,5.45752876 69.0873325,5.55972544 68.3958703,5.75613669 C67.7043999,5.95257261 67.1352867,6.19540623 66.6885308,6.48463837 L67.2285781,8.21729215 C67.6298618,7.95524752 68.0930281,7.74804171 68.6180769,7.59567389 C69.1431194,7.44332722 69.685041,7.36550808 70.2438456,7.36221626 C71.4406641,7.41988828 72.1691662,7.76585613 72.4293519,8.40012105 C72.689523,9.03440525 72.7935957,9.61101847 72.7415676,10.129962 C70.5921517,10.1295013 68.9054418,10.5129724 67.6814316,11.2803768 C66.4574152,12.0477945 65.8339229,13.2019581 65.8109525,14.7428712 C65.8179832,15.7306171 66.1358239,16.5735033 66.7644746,17.2715327 C67.3931213,17.9695638 68.2903879,18.3342834 69.4562765,18.3656928 C70.2363401,18.3558478 70.9207737,18.1955213 71.5095835,17.8847125 C72.0983787,17.5739041 72.5690442,17.1716814 72.9215841,16.678043 L72.9890895,16.678043 L73.1691059,18.118171 L75.5318151,18.118171 C75.4553924,17.7070412 75.4056989,17.2466883 75.3827389,16.7371106 C75.3597582,16.2275359 75.3494455,15.7053026 75.3517987,15.1704093 L75.3517987,10.4899938 Z M72.809073,13.9327993 C72.789845,14.6678681 72.5357611,15.2679209 72.0468193,15.7329591 C71.5578629,16.1980024 70.9493711,16.4380235 70.2213438,16.453023 C69.7220747,16.4563063 69.2973499,16.2978547 68.9471674,15.9776679 C68.5969766,15.6574853 68.4141488,15.155879 68.3986818,14.4728474 C68.4544646,13.4002565 68.9335685,12.6933191 69.8359977,12.3520334 C70.7384165,12.0107594 71.7294409,11.8551209 72.809073,11.8851177 L72.809073,13.9327993 Z M81.2305974,0.0715691439 L78.6203643,0.0715691439 L78.6203643,18.118171 L81.2305974,18.118171 L81.2305974,0.0715691439 Z M100.431272,15.5529431 C100.05013,15.7357741 99.5860289,15.8820368 99.0389593,15.9917318 C98.491869,16.1014311 97.9208816,16.1576862 97.3259949,16.1604972 C95.5305163,16.1501859 94.1260169,15.5801358 93.1124949,14.4503454 C92.0989645,13.3205623 91.5832934,11.6929193 91.5654835,9.56741189 C91.5992331,7.32800537 92.1505322,5.64692015 93.219381,4.52415169 C94.2882194,3.40141038 95.6720912,2.83979871 97.3709985,2.83931479 C98.0127651,2.8444867 98.5856269,2.90730471 99.0895879,3.02776883 C99.5935281,3.14826322 100.025754,3.29546369 100.386266,3.46937065 L100.948817,1.33168104 C100.713001,1.19527906 100.290153,1.05182862 99.6802657,0.901329487 C99.0703578,0.750864774 98.2705996,0.669295403 97.2809913,0.656621168 C94.8413928,0.667889274 92.8349658,1.44420722 91.2617061,2.9855775 C89.6884403,4.52697784 88.8746188,6.7659245 88.8202396,9.7024239 C88.8544619,12.4654876 89.5904632,14.5956745 91.0282498,16.0929912 C92.466028,17.5903118 94.4002598,18.3478782 96.8309513,18.3656928 C97.7718054,18.3581919 98.5903146,18.2831855 99.2864812,18.140673 C99.9826249,17.9981603 100.514234,17.8331458 100.881312,17.6456289 L100.431272,15.5529431 Z M108.383095,5.44954646 C106.702003,5.46081042 105.316255,6.02898542 104.22585,7.1540731 C103.135439,8.27918277 102.571016,9.89369932 102.532576,11.9976277 C102.567733,14.0153108 103.110594,15.5773227 104.161156,16.6836682 C105.211716,17.7900165 106.559021,18.3506908 108.203078,18.3656928 C109.665701,18.382569 110.982065,17.870649 112.15218,16.8299313 C113.322271,15.7892161 113.941075,14.1184446 114.008593,11.8176117 C113.986548,9.88854234 113.47369,8.35184493 112.47002,7.20751492 C111.466328,6.06320668 110.104021,5.47721768 108.383095,5.44954646 L108.383095,5.44954646 Z M111.330857,11.8851177 C111.321471,13.1564857 111.047697,14.219704 110.509532,15.0747757 C109.971351,15.9298537 109.225037,16.3742675 108.270584,16.4080192 C107.306274,16.3733306 106.557146,15.9307916 106.023197,15.0804013 C105.489239,14.2300169 105.218278,13.1799247 105.210313,11.9301217 C105.199527,10.8064352 105.43486,9.78540811 105.916313,8.86703714 C106.397758,7.94868482 107.190014,7.46207962 108.293085,7.40722027 C109.374581,7.46582964 110.153712,7.95618508 110.630481,8.87828804 C111.107232,9.80040965 111.340691,10.8026852 111.330857,11.8851177 L111.330857,11.8851177 Z M119.203205,0.0715691439 L116.592974,0.0715691439 L116.592974,18.118171 L119.203205,18.118171 L119.203205,0.0715691439 Z M125.136429,0.0715691439 L122.526195,0.0715691439 L122.526195,18.118171 L125.136429,18.118171 L125.136429,0.0715691439 Z M137.100185,15.7779631 C136.701234,15.9500116 136.250257,16.0897112 135.747251,16.1970623 C135.24423,16.3044172 134.652617,16.3597348 133.972409,16.3630152 C132.963562,16.3770806 132.100986,16.084555 131.384677,15.4854373 C130.66836,14.8863248 130.278326,13.8962379 130.214574,12.5151736 L138.090272,12.5151736 C138.135266,12.203902 138.157767,11.8363699 138.15778,11.4125757 C138.172299,9.82525555 137.794455,8.44888462 137.024241,7.28345894 C136.254007,6.11805483 135.004209,5.50675136 133.274845,5.44954646 C131.50656,5.49550067 130.137688,6.14055725 129.168231,7.38471827 C128.198769,8.62890064 127.707476,10.1965383 127.69435,12.0876355 C127.706539,14.0031222 128.222208,15.5220054 129.241363,16.6442897 C130.260512,17.7665772 131.710015,18.3403777 133.589874,18.3656928 C134.437441,18.360067 135.195007,18.2869357 135.862576,18.1462983 C136.530124,18.0056612 137.085174,17.8312709 137.527723,17.6231269 L137.100185,15.7779631 Z M130.237075,10.6475078 C130.295672,9.87869799 130.549756,9.14363361 130.999331,8.44231218 C131.448899,7.74101003 132.147398,7.36597707 133.09483,7.31721226 C134.080221,7.3631646 134.764657,7.73257201 135.148137,8.42543552 C135.531599,9.11831873 135.709741,9.85900866 135.68256,10.6475078 L130.237075,10.6475078 Z M148.71067,5.71957049 L148.598161,7.38471827 L148.553155,7.38471827 C148.300469,6.87093363 147.90012,6.42464443 147.352111,6.04584901 C146.804086,5.66707785 146.071835,5.46831047 145.155355,5.44954646 C143.755537,5.45940388 142.544181,6.02476599 141.521281,7.14563426 C140.498377,8.2665247 139.96208,9.88385414 139.912389,11.9976277 C139.934891,13.7659137 140.390556,15.2079151 141.279386,16.3236363 C142.168212,17.4393611 143.355191,18.0150368 144.840326,18.050665 C145.64336,18.0408206 146.338108,17.8692432 146.924573,17.5359318 C147.511023,17.2026218 147.963875,16.7666459 148.283132,16.2280032 L148.328137,16.2280032 L148.328137,17.4206089 C148.310313,18.815263 147.985908,19.8231631 147.354925,20.4443146 C146.723923,21.06546 145.893226,21.3701745 144.86283,21.3584581 C144.160574,21.3500176 143.523018,21.2600083 142.950158,21.0884345 C142.377292,20.9168544 141.897249,20.7143362 141.510031,20.4808798 L140.924978,22.50606 C141.421428,22.7995184 142.014917,23.0226642 142.70545,23.1754952 C143.395975,23.3283158 144.1076,23.4051968 144.840326,23.4061401 C146.764239,23.3650199 148.159362,22.9397063 149.025699,22.1301932 C149.892015,21.3206738 150.432062,20.3736454 150.645843,19.2891078 C150.859598,18.2045668 150.949606,17.2292037 150.915866,16.3630152 L150.915866,9.29738807 C150.916323,8.47466807 150.926635,7.77991949 150.946807,7.21314026 C150.966953,6.64638301 150.994143,6.1485269 151.028375,5.71957049 L148.71067,5.71957049 Z M148.305633,12.9427114 C148.277498,13.9778075 147.996223,14.7541256 147.461809,15.271668 C146.927378,15.7892159 146.308574,16.0479872 145.605395,16.0479872 C144.632176,16.0264252 143.883986,15.6363909 143.36082,14.8778832 C142.837645,14.119382 142.573247,13.1217945 142.567626,11.8851177 C142.582622,10.5415682 142.867648,9.48209996 143.4227,8.70670983 C143.977746,7.93133877 144.71281,7.53567913 145.627897,7.51973028 C146.43843,7.54177429 147.084424,7.83523746 147.565881,8.40012105 C148.04732,8.96502392 148.293905,9.66914808 148.305633,10.5124958 L148.305633,12.9427114 Z M162.898704,15.7779631 C162.499752,15.9500116 162.048775,16.0897112 161.545772,16.1970623 C161.04275,16.3044172 160.451135,16.3597348 159.770927,16.3630152 C158.762081,16.3770806 157.899505,16.084555 157.183198,15.4854373 C156.466881,14.8863248 156.076847,13.8962379 156.013094,12.5151736 L163.888793,12.5151736 C163.933784,12.203902 163.956288,11.8363699 163.956298,11.4125757 C163.97082,9.82525555 163.592973,8.44888462 162.82276,7.28345894 C162.052526,6.11805483 160.80273,5.50675136 159.073365,5.44954646 C157.305078,5.49550067 155.936209,6.14055725 154.966749,7.38471827 C153.997288,8.62890064 153.505995,10.1965383 153.49287,12.0876355 C153.505057,14.0031222 154.020729,15.5220054 155.039882,16.6442897 C156.059033,17.7665772 157.508534,18.3403777 159.388393,18.3656928 C160.235962,18.360067 160.993528,18.2869357 161.661095,18.1462983 C162.328645,18.0056612 162.883693,17.8312709 163.326242,17.6231269 L162.898704,15.7779631 Z M156.035596,10.6475078 C156.09419,9.87869799 156.348276,9.14363361 156.797852,8.44231218 C157.247417,7.74101003 157.945916,7.36597707 158.893349,7.31721226 C159.878742,7.3631646 160.563176,7.73257201 160.946656,8.42543552 C161.330119,9.11831873 161.508259,9.85900866 161.481078,10.6475078 L156.035596,10.6475078 Z" id="text3368"></path><path d="M9.97980486,40.3841592 L2.90943961,40.3841592 L2.90943961,25.3753278 L0.129228089,25.3753278 L0.129228089,42.5893557 L9.97980486,42.5893557 L9.97980486,40.3841592 Z M17.6895827,29.9207318 C15.8990173,29.9319959 14.4230302,30.5001697 13.2616163,31.625257 C12.1001972,32.7503665 11.4990171,34.364883 11.4580743,36.4688125 C11.4955224,38.4864961 12.0737338,40.0485068 13.1927105,41.1548527 C14.3116818,42.2612006 15.7467249,42.8218749 17.4978441,42.8368777 C19.0557127,42.8537529 20.4578008,42.3418336 21.704111,41.3011159 C22.9503998,40.2604002 23.609502,38.5896293 23.6814175,36.288797 C23.6579356,34.359726 23.1116806,32.82303 22.0426502,31.678699 C20.9735963,30.5343921 19.5225759,29.948403 17.6895827,29.9207318 L17.6895827,29.9207318 Z M20.8293053,36.3563016 C20.8193083,37.6276702 20.5277049,38.6908881 19.9544961,39.5459592 C19.381268,40.4010384 18.5863522,40.8454511 17.5697461,40.8792034 C16.5426397,40.8445149 15.7447278,40.4019766 15.1760078,39.5515863 C14.6072786,38.701202 14.3186722,37.6511086 14.3101878,36.401306 C14.2986998,35.2776188 14.5493578,34.2565928 15.0621629,33.3382219 C15.574959,32.419869 16.4188084,31.9332644 17.5937134,31.8784041 C18.745635,31.9370151 19.5755033,32.4273704 20.0833206,33.3494719 C20.5911191,34.2715936 20.8397794,35.2738701 20.8293053,36.3563016 L20.8293053,36.3563016 Z M37.3392378,35.0061823 C37.2862978,33.1207114 36.8169374,31.7949707 35.9311568,31.028954 C35.0453526,30.2629615 34.0606954,29.8935528 32.9771809,29.9207318 C31.9790346,29.9427759 31.1411763,30.163109 30.4636079,30.5817268 C29.7860246,31.0003688 29.2897032,31.485099 28.9746373,32.0359195 L28.9027346,32.0359195 L28.7589294,30.190756 L26.3382287,30.190756 C26.3631934,30.7130013 26.3851624,31.2549222 26.40414,31.8165246 C26.4231112,32.3781472 26.4330975,32.9988267 26.4340989,33.6785652 L26.4340989,42.5893557 L29.2143106,42.5893557 L29.2143106,35.1186932 C29.2467602,34.1258005 29.5473506,33.3719842 30.1160817,32.8572403 C30.6848,32.3425186 31.3269253,32.0837464 32.0424552,32.0809218 C32.9756745,32.1062486 33.631781,32.4269023 34.0107725,33.0428829 C34.3897469,33.6588836 34.5724981,34.4183269 34.5590261,35.3212109 L34.5590261,42.5893557 L37.3392378,42.5893557 L37.3392378,35.0061823 Z M51.8771148,24.5427548 L49.0969031,24.5427548 L49.0969031,31.5858797 L49.0489702,31.5858797 C48.7578568,31.1030339 48.3154597,30.7073742 47.7217767,30.3988988 C47.1280788,30.0904454 46.4040667,29.9310578 45.5497386,29.9207318 C44.030304,29.932464 42.7430579,30.5053266 41.6880002,31.6393217 C40.6329361,32.7733368 40.0826861,34.3981672 40.0372503,36.5138169 C40.0697041,38.4508674 40.5740176,39.9828766 41.5501884,41.1098483 C42.526355,42.2368241 43.7796452,42.8124992 45.3100652,42.8368777 C46.2512744,42.8246875 47.0651653,42.6184191 47.7517378,42.2180726 C48.4382931,41.8177241 48.9585821,41.296429 49.312611,40.6541835 L49.3845115,40.6541835 L49.5283168,42.5893557 L51.972985,42.5893557 C51.9480054,42.1477535 51.9260364,41.6302092 51.9070737,41.0367167 C51.8880876,40.4432303 51.8781013,39.8581774 51.8771148,39.281562 L51.8771148,24.5427548 Z M49.0969031,37.5039032 C49.0854104,38.3960192 48.814779,39.1488974 48.2850108,39.7625415 C47.7552235,40.3761918 47.0352064,40.6959073 46.1249532,40.7216901 C45.0663906,40.694501 44.2594904,40.2819662 43.7042526,39.4840797 C43.1490041,38.6861992 42.8693856,37.6661114 42.8653949,36.4238081 C42.8698863,35.1660481 43.154499,34.1206435 43.7192331,33.2875924 C44.2839586,32.4545594 45.1018423,32.022335 46.1728883,31.9909151 C46.9762857,31.9984265 47.658354,32.2815772 48.2190996,32.8403652 C48.7798258,33.3991732 49.0724263,34.1886182 49.0969031,35.2087 L49.0969031,37.5039032 Z M60.8032611,29.9207318 C59.0126944,29.9319959 57.5367079,30.5001697 56.375293,31.625257 C55.2138739,32.7503665 54.6126952,34.364883 54.5717529,36.4688125 C54.6091989,38.4864961 55.1874113,40.0485068 56.3063882,41.1548527 C57.4253587,42.2612006 58.8604029,42.8218749 60.6115208,42.8368777 C62.1693898,42.8537529 63.5714773,42.3418336 64.8177896,41.3011159 C66.0640785,40.2604002 66.7231806,38.5896293 66.7950961,36.288797 C66.7716143,34.359726 66.2253592,32.82303 65.1563288,31.678699 C64.0872749,30.5343921 62.636253,29.948403 60.8032611,29.9207318 L60.8032611,29.9207318 Z M63.9429817,36.3563016 C63.9329847,37.6276702 63.6413835,38.6908881 63.0681738,39.5459592 C62.4949449,40.4010384 61.7000295,40.8454511 60.6834234,40.8792034 C59.6563175,40.8445149 58.8584043,40.4019766 58.289686,39.5515863 C57.720957,38.701202 57.4323493,37.6511086 57.4238651,36.401306 C57.4123767,35.2776188 57.6630356,34.2565928 58.1758396,33.3382219 C58.6886372,32.419869 59.5324848,31.9332644 60.707391,31.8784041 C61.8593117,31.9370151 62.6891802,32.4273704 63.1969986,33.3494719 C63.7047956,34.2715936 63.953458,35.2738701 63.9429817,36.3563016 L63.9429817,36.3563016 Z M80.4529185,35.0061823 C80.3999785,33.1207114 79.9306182,31.7949707 79.0448375,31.028954 C78.1590334,30.2629615 77.1743762,29.8935528 76.0908617,29.9207318 C75.0927154,29.9427759 74.254857,30.163109 73.5772887,30.5817268 C72.8997053,31.0003688 72.4033839,31.485099 72.0883159,32.0359195 L72.0164154,32.0359195 L71.8726101,30.190756 L69.4519095,30.190756 C69.4768741,30.7130013 69.4988431,31.2549222 69.5178207,31.8165246 C69.5367919,32.3781472 69.5467782,32.9988267 69.5477796,33.6785652 L69.5477796,42.5893557 L72.3279913,42.5893557 L72.3279913,35.1186932 C72.3604409,34.1258005 72.6610313,33.3719842 73.2297625,32.8572403 C73.7984808,32.3425186 74.440606,32.0837464 75.156136,32.0809218 C76.0893553,32.1062486 76.7454618,32.4269023 77.1244532,33.0428829 C77.5034276,33.6588836 77.6861788,34.4183269 77.6727068,35.3212109 L77.6727068,42.5893557 L80.4529185,42.5893557 L80.4529185,35.0061823 Z" id="text3372"></path></g></g></svg> 