<?xml version="1.0" encoding="UTF-8"?> <svg xmlns="http://www.w3.org/2000/svg" xmlns:xlink="http://www.w3.org/1999/xlink" width="115px" height="35px" viewBox="0 0 115 35"><!-- Generator: Sketch 61.2 (89653) - https://sketch.com --><title>Group 26@4x</title><desc>Created with Sketch.</desc><defs><polygon id="path-1" points="0.0674249982 0 22.3992322 0 22.3992322 34.0258286 0.0674249982 34.0258286"></polygon><polygon id="path-3" points="0.0318037508 -7.03199741e-13 23.4806671 -7.03199741e-13 23.4806671 34.0258286 0.0318037508 34.0258286"></polygon><polygon id="path-5" points="0.0268795253 -7.03199741e-13 15.9280076 -7.03199741e-13 15.9280076 34.0258286 0.0268795253 34.0258286"></polygon><polygon id="path-7" points="0.0823784435 -7.03199741e-13 15.9890862 -7.03199741e-13 15.9890862 34.0258286 0.0823784435 34.0258286"></polygon><polygon id="path-9" points="1.72109909e-05 -7.03199741e-13 3.91035452 -7.03199741e-13 3.91035452 34.0258286 1.72109909e-05 34.0258286"></polygon><polygon id="path-11" points="0.0799494696 -7.03199741e-13 3.87247273 -7.03199741e-13 3.87247273 34.0258286 0.0799494696 34.0258286"></polygon></defs><g id="v2" stroke="none" stroke-width="1" fill="none" fill-rule="evenodd"><g id="Group-13" transform="translate(-504.876729, -21.077794)"><g id="Group-26" transform="translate(504.316110, 21.502202)"><g id="Group-25" transform="translate(0.620098, 0.539645)"><g id="Group-19"><g id="Group-3" transform="translate(6.368066, 0.000000)"><mask id="mask-2" fill="white"><use xlink:href="#path-1"></use></mask><g id="Clip-2"></g><path d="M19.9647655,34.0258286 C19.2939672,33.7498316 18.6000201,33.5189727 17.9565012,33.1895681 C15.8007386,32.0863554 14.1362638,30.386786 12.4988102,28.6471607 C11.458578,27.5419668 10.3828911,26.4625292 9.24817053,25.4561394 C8.12308812,24.4581915 6.78493366,23.9183434 5.23517007,23.9770057 C4.21877506,24.0155109 3.19971235,23.9849307 2.1818544,23.9841555 C0.565312175,23.9829495 -0.295925761,22.7673223 0.213777706,21.2076464 C0.493198127,20.3526932 0.982936845,19.9908994 1.91121159,19.9884875 C4.13340855,19.9826298 6.35551946,19.9875399 8.57771642,19.9860755 C10.0349709,19.9851279 11.4076334,19.6771725 12.6975111,18.962199 C16.3538998,16.9356369 17.9102897,12.4891049 16.2119952,8.66080959 C15.1367386,6.23704953 13.1879382,4.82028222 10.6345158,4.24339339 C9.95726332,4.09040629 9.24335146,4.05457148 8.54544582,4.04673261 C6.39519079,4.02252688 4.24450549,4.03096874 2.09407835,4.04139185 C1.2880877,4.04526821 0.612556342,3.85343135 0.294153029,3.02035805 C-0.0484317256,2.1237124 0.00148014513,1.24946352 0.636995948,0.515194377 C0.864525235,0.252290879 1.29643503,0.166580204 1.63506125,-1.72282768e-05 L9.03578692,-1.72282768e-05 C9.18999739,0.0250499139 9.34326125,0.0633828288 9.49841833,0.0732029464 C13.4504919,0.321462409 16.6655909,1.98536934 18.8678231,5.2892359 C21.2711657,8.89468345 21.5699485,12.7748359 19.8186442,16.7574104 C18.5133627,19.7254978 16.3439175,21.8415609 13.3377599,23.0808769 C13.1955111,23.1395392 13.0563602,23.2052651 12.8390715,23.3017434 C14.6358128,25.0761698 16.3683571,26.8294053 18.1521041,28.5286302 C18.9017287,29.2427423 19.8142554,29.7444297 20.8145581,30.0622052 C22.3013295,30.5345184 22.8106888,31.800969 22.0476395,33.1921523 C21.8759599,33.5050178 21.580189,33.7497455 21.3416447,34.0258286 L19.9647655,34.0258286 Z" id="Fill-1" fill="#1D1D1B" mask="url(#mask-2)"></path></g><g id="Group-6" transform="translate(78.568169, 0.000000)"><mask id="mask-4" fill="white"><use xlink:href="#path-3"></use></mask><g id="Clip-5"></g><path d="M1.20478651,34.0258286 C0.930443326,33.8281342 0.59026811,33.678765 0.399828507,33.419221 C0.201816068,33.1495124 0.0469171585,32.7735052 0.0464008288,32.4436699 C0.0285874543,22.1930177 0.0322017621,11.9422794 0.0318037508,1.69162723 C0.0318037508,0.883104219 0.643536124,0.202501161 1.47775281,0.0831953467 C1.61733393,0.0632966874 1.75476369,0.0281510036 1.8932261,-1.72282768e-05 L2.15139095,-1.72282768e-05 C2.4278855,0.0647610909 2.71427638,0.102404875 2.97889535,0.199572354 C3.66905604,0.452828017 4.03556407,1.01576195 4.03547802,1.75537185 C4.03470352,11.0550232 4.03478958,20.3546745 4.03461747,29.6543258 L4.03461747,30.1078602 L4.59879372,30.1078602 L21.2010309,30.1078602 C21.2583435,30.1078602 21.3157422,30.1093246 21.3730548,30.1076017 C22.1380833,30.084602 22.8478645,30.1797882 23.2148889,30.9880528 C23.620724,31.8819419 23.5697795,32.7484381 23.006894,33.5564442 C22.8739391,33.7473335 22.645119,33.8712049 22.4603591,34.0258286 L1.20478651,34.0258286 Z" id="Fill-4" fill="#1D1D1B" mask="url(#mask-4)"></path></g><g id="Group-9" transform="translate(54.300673, 0.000000)"><mask id="mask-6" fill="white"><use xlink:href="#path-5"></use></mask><g id="Clip-8"></g><path d="M1.8932261,-1.72282768e-05 C2.30499904,0.109296185 2.72081655,0.205257685 3.12802857,0.329731982 C10.2004546,2.49050241 14.4918428,7.22690015 15.6976448,14.5003339 C16.9765074,22.2142946 12.8322731,29.643472 5.71114,32.8800621 C4.74052622,33.3211921 3.68970923,33.5854739 2.67667036,33.9336574 C2.61324787,33.9554511 2.55576316,33.9947316 2.49561075,34.0258286 L1.03267661,34.0258286 C0.182195539,33.3622816 -0.0959340578,32.4840702 0.0818554681,31.4443437 C0.200008914,30.7530591 0.611179463,30.3482808 1.28886219,30.1426613 C2.31317426,29.8318632 3.37982536,29.5821393 4.32539714,29.1025902 C9.24257696,26.6082804 11.8978024,22.553864 11.8910041,17.0440027 C11.8842918,11.5501638 9.21598598,7.51995313 4.32247127,5.0269354 C3.4404941,4.57762195 2.44991557,4.32755352 1.4915216,4.04690489 C0.561869977,3.77469813 0.169459407,3.44046957 0.0538876094,2.51582797 C-0.0571232755,1.62736576 0.162833176,0.824441938 0.923472875,0.269863721 C1.12122715,0.125663048 1.39574244,0.0870717088 1.63506125,-1.72282768e-05 L1.8932261,-1.72282768e-05 Z" id="Fill-7" fill="#1D1D1B" mask="url(#mask-6)"></path></g><g id="Group-12" transform="translate(35.540694, 0.000000)"><mask id="mask-8" fill="white"><use xlink:href="#path-7"></use></mask><g id="Clip-11"></g><path d="M13.5106443,34.0258286 C13.2975722,33.9556234 13.0874261,33.8749089 12.8710839,33.8167635 C6.14812703,32.0107233 1.19970926,26.3565753 0.241659509,19.3829997 C-0.865179252,11.3267131 3.89408974,3.42556711 11.4814686,0.754064429 C12.3406412,0.451622037 13.2350103,0.248931365 14.1130289,-1.72282768e-05 L14.3711938,-1.72282768e-05 C15.62751,0.394768725 16.236779,1.51925832 15.895227,2.82016547 C15.7364556,3.42522254 15.3587604,3.79115113 14.7487169,3.97730266 C13.7248351,4.28973745 12.6571513,4.53584338 11.7115795,5.01478946 C6.66282168,7.57224095 4.03823178,11.7353678 4.09545832,17.3892574 C4.15724577,23.4834156 8.33624623,28.5673077 14.2456396,30.031625 C15.0632477,30.2343157 15.7730289,30.4954102 15.9152778,31.4398643 C16.0647552,32.4329883 15.8867075,33.3248962 15.0052467,33.9532114 C14.9868309,33.9663911 14.983819,34.0011922 14.9735784,34.0258286 L13.5106443,34.0258286 Z" id="Fill-10" fill="#1D1D1B" mask="url(#mask-8)"></path></g><g id="Group-15"><mask id="mask-10" fill="white"><use xlink:href="#path-9"></use></mask><g id="Clip-14"></g><path d="M2.065336,-1.72282768e-05 C2.366012,0.0812140949 2.68329659,0.125232341 2.96392179,0.251171041 C3.57663303,0.526306615 3.90889119,1.00327145 3.90863302,1.70161963 C3.90570715,11.9464142 3.90476055,22.1911226 3.91035452,32.435831 C3.91087045,33.2656309 3.4083956,33.6922031 2.7537756,34.0258286 L1.03267661,34.0258286 C0.688456808,33.7099482 0.344237009,33.3941539 1.72109903e-05,33.0782734 L1.72109903e-05,1.03367935 C0.27573727,0.773963088 0.522026535,0.467213627 0.836643431,0.269346873 C1.08835416,0.110932872 1.42319397,0.0848320329 1.7211162,-1.72282768e-05 L2.065336,-1.72282768e-05 Z" id="Fill-13" fill="#1D1D1B" mask="url(#mask-10)"></path></g><g id="Group-18" transform="translate(110.322445, 0.000000)"><mask id="mask-12" fill="white"><use xlink:href="#path-11"></use></mask><g id="Clip-17"></g><path d="M1.29084145,34.0258286 C0.391567232,33.6628288 0.0776387755,33.0058285 0.0799494696,32.0333785 C0.10379948,21.9262378 0.0944194907,11.8190111 0.0938171061,1.71187045 C0.0938171061,0.872939536 0.705237523,0.194403871 1.56174244,0.0817309432 C1.70209806,0.0632105461 1.84021625,0.0276341553 1.97928105,-1.72282768e-05 L2.2374459,-1.72282768e-05 C2.86891712,0.0757010464 3.430942,0.298031953 3.87248994,0.775255209 L3.87248994,33.3366976 C3.55692644,33.5664366 3.24136294,33.7960896 2.9258855,34.0258286 L1.29084145,34.0258286 Z" id="Fill-16" fill="#1D1D1B" mask="url(#mask-12)"></path></g></g></g></g></g></g></svg> 