<?xml version="1.0" encoding="UTF-8"?> <svg xmlns="http://www.w3.org/2000/svg" xmlns:xlink="http://www.w3.org/1999/xlink" width="103px" height="49px" viewBox="0 0 103 49"><!-- Generator: Sketch 61.2 (89653) - https://sketch.com --><title>teletext-logo-color@1x</title><desc>Created with Sketch.</desc><g id="Assets" stroke="none" stroke-width="1" fill="none" fill-rule="evenodd"><g id="teletext-logo-color" fill="#773783" fill-rule="nonzero"><g id="TT-Logo---Web" transform="translate(0.586903, 0.239737)"><path d="M5.34682811,19.3052012 L9.05243217,19.3052012 L9.05243217,16.6324687 C9.05243217,15.6752887 8.26889782,14.8923445 7.30789628,14.8923445 L6.26095152,14.8923445 C5.30887915,14.8755911 4.54320313,14.1082834 4.54320313,13.1544541 L4.54320313,9.56474987 L5.95959215,9.56474987 C6.92059369,9.56474987 7.70412804,8.78739015 7.70412804,7.82797636 L7.70412804,5.15301008 L4.53650626,5.15301008 L4.53204167,0.083418463 C2.05977873,0.4787997 0.147820968,2.5953179 0.113214102,5.15301008 L0.113214102,14.0870624 C0.108755865,16.9697713 2.46047507,19.3052012 5.34682811,19.3052012" id="Fill-1"></path><path d="M50.9045513,14.8956952 L49.8576065,14.8956952 C48.9066503,14.8778249 48.1398581,14.1105172 48.1398581,13.1566879 L48.1398581,9.56586677 L49.5540149,9.56586677 C50.5161325,9.56586677 51.2985507,8.78962395 51.2985507,7.82909326 L51.2985507,5.15412698 L48.1298128,5.15412698 L48.1242321,0.0845353591 C45.6542014,0.479916596 43.7433598,2.5964348 43.706527,5.15412698 L43.706527,14.0881793 C43.706527,16.9608362 46.0548978,19.2951491 48.9434831,19.2951491 L52.6490884,19.2951491 L52.6490884,16.6224166 C52.6502033,15.6752887 51.8677851,14.8956952 50.9045513,14.8956952" id="Fill-2"></path><path d="M23.9429333,5.16306215 L23.9317718,5.14295802 L23.9317718,19.3052012 L26.6194509,19.3052012 C27.5826848,19.3052012 28.365103,18.5323091 28.365103,17.5684277 L28.3494769,0.0186384863 C25.8548911,0.416253515 23.9429333,2.57186308 23.9429333,5.16306215" id="Fill-3"></path><path d="M90.6326449,19.4515146 L94.3371328,19.4515146 L94.3371328,16.7765483 C94.3371328,15.8204852 93.5547146,15.0397748 92.5925969,15.0397748 L91.5456522,15.0397748 C90.5935798,15.0219045 89.8279038,14.2545968 89.8279038,13.3007675 L89.8279038,9.70994637 L91.2431767,9.70994637 C92.2052943,9.70994637 92.9888287,8.93482044 92.9888287,7.97205596 L92.9888287,5.30155727 L89.8178585,5.30155727 L89.8133939,0.230848755 C87.3411309,0.625113095 85.4314055,2.74274819 85.3945727,5.30155727 L85.3945727,14.2322589 C85.3956888,17.1149678 87.747408,19.4515146 90.6326449,19.4515146" id="Fill-4"></path><path d="M70.4047346,19.3052012 C71.1670621,19.317487 71.9148798,18.9232227 72.3245053,18.220695 L75.8336677,12.2296641 L72.3245053,6.23975004 C71.9148798,5.53275477 71.1670621,5.14630871 70.4047346,5.1518335 L66.6522524,5.1518335 L70.7418106,12.2274303 L66.6522524,19.3040843 L70.4047346,19.3040843" id="Fill-5"></path><path d="M80.9478478,12.2285472 L85.0396383,5.15412698 L81.28604,5.15412698 C80.5214801,5.14519181 79.7758947,5.53498857 79.3673853,6.24198383 L75.8582229,12.2285472 L79.3673853,18.220695 C79.7758947,18.9232227 80.5237124,19.3141364 81.28604,19.3052012 L85.0396383,19.3052012 L80.9478478,12.2285472" id="Fill-6"></path><path d="M8.99885082,28.713545 L5.29324676,28.713545 C5.01979104,28.713545 4.75079991,28.7369998 4.48627335,28.7805588 L4.48180877,23.6260831 C2.0140104,24.0214643 0.122143268,26.1480346 0.122143268,28.7146619 L0.113214102,42.7004355 L2.75513121,42.7004355 C3.70831973,42.7004355 4.48180877,41.9320109 4.48180877,40.9837661 L4.49073793,33.4469509 C4.52980304,33.2369744 4.71954782,33.0649724 4.94166084,33.0649724 L9.34820446,33.0649724 C9.60045341,33.0649724 9.80470809,33.2749489 9.80470809,33.5184322 L9.80470809,42.7004355 L12.4477413,42.7004355 C13.4009299,42.7004355 14.175535,41.9320109 14.175535,40.9837661 L14.175535,33.8691376 C14.175535,31.0266369 11.8517195,28.713545 8.99885082,28.713545" id="Fill-7"></path><path d="M30.7860169,28.648765 L30.7748554,28.6253102 L30.7748554,42.6390062 L33.4346308,42.6390062 C34.3878194,42.6390062 35.1601923,41.867231 35.1601923,40.9189861 L35.1456824,23.5613031 C32.677884,23.9544505 30.7860169,26.0832546 30.7860169,28.648765" id="Fill-8"></path><path d="M82.5919242,30.4570199 L82.5919242,37.9212369 C82.5919242,38.1703047 82.3820888,38.3758136 82.1320721,38.3758136 L77.7244124,38.3758136 C77.4755119,38.3758136 77.2667926,38.1658371 77.2667926,37.9212369 L77.2667926,30.4570199 C77.2667926,29.509892 76.4988843,28.7425843 75.540115,28.7425843 L72.8981979,28.7425843 L72.8981979,37.5705315 C72.8981979,40.4085646 75.2197812,42.7138382 78.0793467,42.7138382 L82.3128878,42.7093707 C82.3128878,42.7093707 81.8485711,43.5202373 80.883105,43.5202373 L79.8450894,43.5180035 C78.8907847,43.5180035 78.1184118,44.286428 78.1184118,45.2357897 L78.1184118,47.8750153 L81.7860669,47.8750153 C84.6400518,47.8750153 86.9660996,45.5686248 86.9660996,42.7283579 L86.9660996,28.7425843 L84.3219502,28.7425843 C83.3642971,28.7425843 82.5919242,29.5110089 82.5919242,30.4570199" id="Fill-10"></path><path d="M24.249867,28.7425843 L20.5476114,28.7425843 C17.6880459,28.7425843 15.3664626,31.0523256 15.3664626,33.8892418 L15.3664626,37.5660639 C15.3664626,40.4085646 17.6880459,42.7138382 20.5476114,42.7138382 L24.249867,42.7138382 C27.1083164,42.7138382 29.4332482,40.4085646 29.4332482,37.5660639 L29.4332482,33.8892418 C29.4287836,31.0523256 27.1038519,28.7425843 24.249867,28.7425843 Z M25.0557243,37.92012 C25.0557243,38.1691878 24.8492373,38.3724629 24.601453,38.3724629 L20.1915609,38.3724629 C19.9426604,38.3724629 19.7339411,38.1624864 19.7339411,37.92012 L19.7339411,33.5396533 C19.7339411,33.2972868 19.9437765,33.0895441 20.1915609,33.0895441 L24.601453,33.0895441 C24.8503535,33.0895441 25.0557243,33.2995206 25.0557243,33.5396533 L25.0557243,37.92012 Z" id="Fill-12"></path><path d="M39.1626911,23.5601862 L36.5163094,23.5590693 C36.5163094,28.0244201 40.8480713,28.6588171 40.8480713,28.6588171 C40.8715103,28.6588171 36.5062641,29.4942554 36.5062641,33.7462791 L36.5062641,42.6367724 L39.1626911,42.6367724 C40.1158796,42.6367724 40.8916009,41.8661141 40.8916009,40.9167523 L40.8916009,25.2790894 C40.8916009,24.3319614 40.1158796,23.5601862 39.1626911,23.5601862" id="Fill-13"></path><path d="M51.9313991,25.2154263 L51.9313991,37.8397034 C51.9313991,38.0843037 51.7215637,38.2898126 51.4760116,38.2898126 L47.0661195,38.2898126 C46.817219,38.2898126 46.6129643,38.0798361 46.6129643,37.8397034 L46.6129643,33.4882761 C46.6129643,33.2403251 46.8194513,33.0348162 47.0661195,33.0348162 L50.5864434,33.0348162 L50.5864434,30.4056427 C50.5864434,29.4518134 49.8118382,28.6889733 48.8597658,28.6889733 L47.4165893,28.6889733 C44.5570238,28.6889733 42.2332082,30.9975976 42.2332082,33.8412152 L42.2332082,37.4867643 C42.2332082,40.329265 44.5570238,42.64124 47.4165893,42.64124 L51.1244256,42.64124 C53.9806428,42.64124 56.3044583,40.329265 56.3044583,37.4867643 L56.3044583,23.4954062 L53.6591928,23.4954062 C52.7071204,23.4954062 51.9313991,24.2660645 51.9313991,25.2154263" id="Fill-14"></path><path d="M66.430133,28.8520401 L62.7714071,28.8520401 C59.9531389,28.8520401 57.6527624,31.1383266 57.6527624,33.9462035 L57.6527624,37.5526611 C57.6527624,40.3638887 59.9531389,42.6490583 62.7714071,42.6490583 L64.1933768,42.6490583 C65.1331716,42.6490583 65.8977315,41.8806337 65.8977315,40.9491423 L65.8977315,38.350125 L62.4209373,38.350125 C62.1753852,38.350125 61.9700144,38.1446161 61.9700144,37.9067172 L61.9700144,33.6033164 C61.9700144,33.3620668 62.1798498,33.1599086 62.4209373,33.1599086 L66.7772544,33.1599086 C67.0216903,33.1599086 67.2270611,33.3687682 67.2270611,33.6033164 L67.2270611,40.9390903 C67.2270611,41.8750492 67.9949694,42.6378893 68.9291835,42.6378893 L71.5498942,42.6378893 L71.5498942,33.9562555 C71.55101,31.1372097 69.2517496,28.8520401 66.430133,28.8520401" id="Fill-15"></path><path d="M93.4654166,33.0180628 L100.610982,33.015829 C101.564171,33.015829 102.339892,32.2474044 102.339892,31.2991596 L102.339892,28.6577002 L93.4218869,28.6677523 C90.8447063,28.6677523 88.3077069,30.5374364 88.3077069,33.0068938 L88.3077069,33.0113614 C88.3077069,35.5333129 90.8447063,37.3505029 93.4241192,37.3505029 L97.2134342,37.3438016 C97.4746123,37.3438016 97.6911446,37.553778 97.6911446,37.8240669 C97.6911446,38.0798361 97.5192582,38.2931633 97.2491509,38.2931633 L90.0355006,38.2819943 C89.0823121,38.2819943 88.308823,39.0504189 88.308823,39.9986637 L88.308823,42.6423569 L97.2234795,42.6256034 C99.8017763,42.6256034 102.339892,40.7581531 102.339892,38.2898126 L102.339892,38.2864619 C102.339892,35.7667442 99.8017763,33.9495542 97.2234795,33.9495542 L93.4654166,33.9495542 C93.2053546,33.9495542 92.9877062,33.7406946 92.9877062,33.4804578 C92.9888224,33.2191041 93.2042385,33.0180628 93.4654166,33.0180628" id="Fill-16"></path><path d="M14.7581695,19.2359536 L22.7062438,19.2359536 L22.7062438,16.5129608 C22.7062438,15.5367936 21.9081995,14.7404466 20.9226428,14.7404466 L14.3909575,14.7404466 C14.1353601,14.7404466 13.919944,14.5293533 13.919944,14.2691165 L13.919944,10.1053276 C13.919944,9.84955839 14.1353601,9.63511433 14.3909575,9.63511433 L17.8498934,9.63511433 C17.9403012,9.63511433 18.1624142,9.60495813 18.0686579,9.75797291 L15.4044179,13.0952586 L15.0159992,13.7631625 L18.4526121,13.7631625 C19.8366329,13.7631625 21.069974,13.1220641 21.8635537,12.1135069 C22.1102219,11.7996591 22.3144766,11.4523044 22.4696208,11.0781442 C22.639275,10.6581912 22.7486573,10.2069652 22.7765609,9.7322843 C22.7821417,9.63958191 22.7877224,9.54576264 22.7877224,9.45082647 C22.7877224,7.06960388 20.847861,5.14184112 18.451496,5.14184112 C18.2952355,5.14184112 18.1423236,5.1496594 17.9894116,5.16529594 C17.824222,5.14407491 17.6512194,5.14184112 17.479333,5.14184112 L14.7537049,5.14184112 C11.8026154,5.14184112 9.4040181,7.52976509 9.4040181,10.4638513 L9.4040181,13.9016576 C9.40848268,16.8469128 11.8081962,19.2359536 14.7581695,19.2359536" id="Fill-17"></path><path d="M34.8532585,19.2359536 L42.8013328,19.2359536 L42.8013328,16.5129608 C42.8013328,15.5367936 42.0010562,14.7404466 41.0177318,14.7404466 L34.4882788,14.7404466 C34.2326814,14.7404466 34.015033,14.5293533 34.015033,14.2691165 L34.015033,10.1053276 C34.015033,9.84955839 34.2326814,9.63511433 34.4882788,9.63511433 L37.9449824,9.63511433 C38.0365063,9.63511433 38.2586193,9.60495813 38.1648631,9.75797291 L35.4995069,13.0952586 L35.1110882,13.7631625 L38.5488173,13.7631625 C39.932838,13.7631625 41.165063,13.1220641 41.9586427,12.1135069 C42.2075432,11.7996591 42.4095656,11.4523044 42.5647098,11.0781442 C42.734364,10.6581912 42.8437463,10.2069652 42.8727661,9.7322843 C42.8805791,9.63958191 42.8850437,9.54576264 42.8850437,9.45082647 C42.8850437,7.06960388 40.94295,5.14184112 38.5477011,5.14184112 C38.3914407,5.14184112 38.2396449,5.1496594 38.0856167,5.16529594 C37.919311,5.14407491 37.7474246,5.14184112 37.5755381,5.14184112 L34.8499101,5.14184112 C31.8977044,5.14184112 29.5002232,7.52976509 29.5002232,10.4638513 L29.5002232,13.9016576 C29.5013394,16.8469128 31.9032852,19.2359536 34.8532585,19.2359536" id="Fill-18"></path><path d="M61.9220265,5.15524388 C61.7646499,5.15524388 61.6117379,5.16306215 61.4599421,5.1786987 C61.2925202,5.15636077 61.1217499,5.15524388 60.9498635,5.15524388 L58.2220031,5.15524388 C55.2709136,5.15524388 52.8712002,7.54651853 52.8712002,10.4794878 L52.8712002,13.919528 C52.8712002,16.8536141 55.2709136,19.2404212 58.2220031,19.2404212 L66.1700774,19.2404212 L66.1700774,16.5196622 C66.1700774,15.5479625 65.370917,14.747148 64.3853603,14.747148 L57.8559073,14.747148 C57.6003099,14.747148 57.3826615,14.5371715 57.3826615,14.2769347 L57.3826615,10.1131459 C57.3826615,9.85737666 57.5991938,9.64181571 57.8559073,9.64181571 L61.313727,9.64181571 C61.405251,9.64181571 61.627364,9.61165951 61.5336077,9.76467428 L58.8671354,13.10196 L58.4798328,13.7732146 L61.9164457,13.7732146 C63.3004665,13.7732146 64.5338076,13.1298824 65.3273873,12.1213252 C65.577404,11.8085942 65.7794264,11.4601226 65.9334545,11.0870793 C66.1042248,10.6660095 66.2124909,10.2147834 66.2415107,9.74121946 C66.2493237,9.64740019 66.2537927,9.55358091 66.2537927,9.45976163 C66.2571368,7.08412353 64.3150431,5.15524388 61.9220265,5.15524388" id="Fill-19"></path></g></g></g></svg> 